<?xml version="1.0" encoding="UTF-8" standalone="no"?>
<!-- Created with Inkscape (http://www.inkscape.org/) -->

<svg
   xmlns:dc="http://purl.org/dc/elements/1.1/"
   xmlns:cc="http://creativecommons.org/ns#"
   xmlns:rdf="http://www.w3.org/1999/02/22-rdf-syntax-ns#"
   xmlns:svg="http://www.w3.org/2000/svg"
   xmlns="http://www.w3.org/2000/svg"
   xmlns:sodipodi="http://sodipodi.sourceforge.net/DTD/sodipodi-0.dtd"
   xmlns:inkscape="http://www.inkscape.org/namespaces/inkscape"
   width="988.01672"
   height="132.68652"
   id="svg3029"
   version="1.1"
   inkscape:version="0.48.1 r9760"
   sodipodi:docname="olas.svg">
  <defs
     id="defs3031" />
  <sodipodi:namedview
     id="base"
     pagecolor="#ffffff"
     bordercolor="#666666"
     borderopacity="1.0"
     inkscape:pageopacity="1"
     inkscape:pageshadow="2"
     inkscape:zoom="0.24748737"
     inkscape:cx="482.78484"
     inkscape:cy="-7.2768556"
     inkscape:document-units="px"
     inkscape:current-layer="layer1"
     showgrid="false"
     fit-margin-top="0"
     fit-margin-left="0"
     fit-margin-right="0"
     fit-margin-bottom="0"
     inkscape:window-width="981"
     inkscape:window-height="648"
     inkscape:window-x="0"
     inkscape:window-y="56"
     inkscape:window-maximized="0" />
  <metadata
     id="metadata3034">
    <rdf:RDF>
      <cc:Work
         rdf:about="">
        <dc:format>image/svg+xml</dc:format>
        <dc:type
           rdf:resource="http://purl.org/dc/dcmitype/StillImage" />
        <dc:title></dc:title>
      </cc:Work>
    </rdf:RDF>
  </metadata>
  <g
     inkscape:label="Capa 1"
     inkscape:groupmode="layer"
     id="layer1"
     transform="translate(144.00835,-466.01892)">
    <path
       style="fill:#f87b27;fill-opacity:1;fill-rule:evenodd;display:inline"
       d="m 708.25479,466.01892 c -4.22555,0 -8.37615,0.12148 -12.66855,0.53328 -15.81036,1.51479 -35.34178,10.30109 -51.2076,13.33529 1.20534,-2.60648 2.37109,-5.16731 3.60052,-7.73441 l -10.13483,19.33624 c 1.45736,-2.50008 2.93638,-4.97461 4.40065,-7.46799 27.5369,-5.99968 56.07446,-9.54035 85.07932,-6.26737 3.84484,0.43525 7.4806,-0.53789 11.20168,0 23.03488,3.32827 51.13296,13.45133 69.61038,22.53675 7.73659,3.8021 16.27762,7.8144 20.53638,11.335 2.93165,2.4196 5.57416,7.853 8.13456,9.2014 3.1706,1.664 3.90244,4.8754 7.20105,5.0672 -12.66536,-17.6622 -31.78925,-28.944 -56.27504,-39.87266 -22.1345,-9.8759 -49.89941,-19.86072 -79.47852,-20.00273 z M 86.82885,502.42421 c -14.16433,0.4973 -28.39023,3.015 -42.67311,7.068 l -10.268,3.2 -10.40164,5.6009 c -2.46657,3.2014 -7.99079,5.6076 -11.06813,7.6012 -5.37677,3.482 -9.47249,7.1928 -15.33561,8.2681 -3.98597,7.6213 -11.48118,11.71253 -18.4029,16.40223 -23.896968,1.7837 -45.980022,4.8049 -66.676474,12.2687 -19.138926,6.9 -35.162816,15.3411 -51.207646,25.6036 -0.17594,4.3442 -7.11568,5.8816 -4.00063,10.2685 6.19197,-2.343 9.93748,-7.9598 15.33561,-11.335 9.20019,-5.7525 20.92057,-9.2006 32.804746,-12.2687 31.240941,-8.065 67.423404,-11.5537 102.415294,-6.1342 9.84909,1.5236 18.90308,6.0018 28.67091,7.2011 3.4309,0.4223 6.89197,-0.5676 10.13478,0 11.78196,2.0569 21.54057,10.5148 31.87141,11.2018 0.61874,-7.0541 -8.40761,-5.4346 -11.33498,-6.1346 1.04142,-0.4394 5.40232,-2.1578 1.06698,-2.0003 -24.4005,-12.1276 -51.07862,-22.0051 -80.94552,-28.6709 17.38493,-13.43333 40.99493,-25.64093 67.61022,-29.73753 20.53434,-3.1577 47.81402,-4.1778 65.47628,-1.0669 13.54894,2.3853 23.66739,6.2996 38.00557,10.268 9.78918,2.7057 20.45557,4.598 30.67121,7.2011 25.32253,6.4609 44.94446,19.41543 72.67784,16.40263 9.57135,-1.0368 21.21591,-3.3262 30.80444,-6.1342 21.93811,-6.43073 44.69017,-19.63623 67.61022,-21.60343 8.74777,-0.7511 15.46129,-1.5223 21.46977,-2.0003 21.38347,-1.7066 38.4471,2.49 54.27452,5.0676 5.16353,0.8408 9.83526,0.05 14.26905,1.0666 7.06205,1.6174 12.35671,5.153 18.53611,7.2011 4.47191,1.4851 9.31414,2.7644 14.26863,4.1343 15.16595,4.19873 28.43631,9.60113 42.0062,12.26833 11.30398,2.2274 22.01193,3.6814 33.73846,4.1338 30.27225,1.1738 49.87089,-8.4558 69.74372,-19.46943 10.86026,-6.0211 21.89233,-13.1125 32.67153,-17.4692 10.0239,-4.0542 20.40518,-5.0806 29.73775,-7.2011 2.62442,-0.602 7.4219,-0.8558 9.20137,-4.0006 -13.34812,3.9386 -26.8968,3.368 -38.93912,7.0675 -2.3641,0.7255 -4.64814,3.2424 -7.06771,4.1342 -2.95724,1.0838 -6.58554,0.8823 -9.20136,2.0004 -12.27276,5.2402 -20.88635,16.8374 -32.80492,18.5361 l -17.46926,9.20103 c -19.58264,4.3144 -38.67989,4.7744 -58.27548,0.9338 -10.31409,-2.0272 -15.87098,-4.162 -24.67027,-7.06803 -5.22721,-1.7196 -10.98728,-2.1796 -15.33561,-4.1338 -9.05525,-4.071 -17.41929,-9.9471 -25.60361,-14.4023 -24.96812,-13.5954 -68.02412,-22.3298 -105.48258,-13.2021 -4.14348,1.0071 -8.51736,3.2454 -13.3353,4.0007 -1.7808,0.2765 -3.54946,0.4842 -5.33403,0.6669 l -6.93429,2.4004 c -1.34429,4.5234 -7.0721,7.9639 -11.33497,10.268 -4.53224,2.4452 -10.41128,4.2268 -15.33603,6.1345 -17.38033,6.7421 -34.19052,12.70913 -61.47566,10.26813 -11.84605,-1.0624 -23.12029,-6.02243 -35.7384,-10.26813 -11.97843,-4.0282 -25.25089,-6.6829 -36.93901,-11.2017 -5.18071,-2.0058 -9.91612,-6.2963 -15.33561,-8.2681 -10.44646,-3.8105 -23.01472,-5.5569 -34.80506,-8.1345 -11.67975,-2.5516 -22.7684,-5.9762 -33.87172,-6.1342 -2.50385,-0.042 -4.9612,-0.088 -7.46798,0 z"
       id="path5083"
       inkscape:connector-curvature="0" />
  </g>
</svg>
